<svg width="106" height="31" viewBox="0 0 106 31" version="1.1" xmlns="http://www.w3.org/2000/svg" xmlns:xlink="http://www.w3.org/1999/xlink">
<title>Logo_2</title>
<desc>Created using Figma</desc>
<g id="Canvas" transform="translate(200 199)">
<g id="Logo_2">
<g id="Group 2 Copy">
<g id="Group">
<g id="MY Copy">
<use xlink:href="#path0_fill" transform="translate(-166.633 -190.785)" fill="#1E282E"/>
</g>
<g id="CRM Copy">
<use xlink:href="#path1_fill" transform="translate(-136.526 -191.245)" fill="#1E282E"/>
</g>
</g>
</g>
<g id="Group 3">
<g id="Fill 1">
<use xlink:href="#path2_fill" transform="translate(-200 -198.829)" fill="#1E282E"/>
</g>
<g id="Clip 5">
<use xlink:href="#path3_fill" transform="translate(-199.986 -191.256)" fill="url(#paint3_linear)"/>
</g>
<mask id="mask0_outline" mask-type="alpha">
<g id="Clip 5">
<use xlink:href="#path3_fill" transform="translate(-199.986 -191.256)" fill="#FFFFFF"/>
</g>
</mask>
</g>
</g>
</g>
<defs>
<linearGradient id="paint3_linear" x1="0" y1="0" x2="1" y2="0" gradientUnits="userSpaceOnUse" gradientTransform="matrix(0 14.8879 -26.5256 0 13.2628 0)">
<stop offset="0" stop-color="#1BD4D1"/>
<stop offset="1" stop-color="#1F85D3"/>
</linearGradient>
<path id="path0_fill" fill-rule="evenodd" d="M 6.7803 7.24447L 10.7079 0.547901C 10.763 0.480259 10.8561 0.372032 10.987 0.223219C 11.1179 0.0744056 11.3212 0 11.5968 0L 13.0025 0C 13.154 0 13.285 0.0541131 13.3952 0.162341C 13.5055 0.270569 13.5606 0.399088 13.5606 0.547901L 13.5606 13.6569C 13.5606 13.8058 13.5055 13.9343 13.3952 14.0425C 13.285 14.1507 13.154 14.2048 13.0025 14.2048L 11.3281 14.2048C 11.1765 14.2048 11.0455 14.1507 10.9353 14.0425C 10.825 13.9343 10.7699 13.8058 10.7699 13.6569L 10.7699 5.72252L 8.08261 10.2884C 8.0137 10.3966 7.91724 10.5082 7.79321 10.6232C 7.66918 10.7382 7.51069 10.7957 7.31776 10.7957L 6.24283 10.7957C 6.0499 10.7957 5.89142 10.7382 5.76739 10.6232C 5.64335 10.5082 5.54689 10.3966 5.47798 10.2884L 2.79067 5.72252L 2.79067 13.6569C 2.79067 13.8058 2.73555 13.9343 2.6253 14.0425C 2.51505 14.1507 2.38413 14.2048 2.23254 14.2048L 0.558134 14.2048C 0.406541 14.2048 0.275622 14.1507 0.165373 14.0425C 0.0551238 13.9343 0 13.8058 0 13.6569L 0 0.547901C 0 0.399088 0.0551238 0.270569 0.165373 0.162341C 0.275622 0.0541131 0.406541 0 0.558134 0L 1.96381 0C 2.23943 0 2.4427 0.0744056 2.57362 0.223219C 2.70454 0.372032 2.79756 0.480259 2.85269 0.547901L 6.7803 7.24447ZM 27.9169 0C 28.0685 0 28.1994 0.0541131 28.3097 0.162341C 28.4199 0.270569 28.475 0.399088 28.475 0.547901C 28.475 0.615543 28.4613 0.676421 28.4337 0.730535L 23.5345 9.19256L 23.5345 13.6569C 23.5345 13.8058 23.4794 13.9343 23.3692 14.0425C 23.2589 14.1507 23.128 14.2048 22.9764 14.2048L 21.3227 14.2048C 21.1711 14.2048 21.0401 14.1507 20.9299 14.0425C 20.8196 13.9343 20.7645 13.8058 20.7645 13.6569L 20.7645 9.19256L 15.8653 0.730535C 15.8378 0.676421 15.824 0.615543 15.824 0.547901C 15.824 0.399088 15.8791 0.270569 15.9894 0.162341C 16.0996 0.0541131 16.2305 0 16.3821 0L 17.9325 0C 18.2081 0 18.4148 0.0676414 18.5527 0.202926C 18.6905 0.338211 18.7732 0.439673 18.8007 0.507316L 22.1495 6.25013L 25.4983 0.507316C 25.5259 0.439673 25.6086 0.338211 25.7464 0.202926C 25.8842 0.0676414 26.0909 0 26.3665 0L 27.9169 0Z"/>
<path id="path1_fill" fill-rule="evenodd" d="M 9.44694 9.9028C 9.4745 9.72693 9.54685 9.59503 9.66399 9.5071C 9.78113 9.41916 9.9086 9.37519 10.0464 9.37519L 11.7208 9.37519C 11.8724 9.37519 12.0068 9.42593 12.1239 9.52739C 12.2411 9.62885 12.2927 9.76075 12.2789 9.9231C 12.2376 10.4778 12.0964 11.0324 11.8552 11.5871C 11.614 12.1418 11.2454 12.6423 10.7492 13.0887C 10.2531 13.5352 9.62609 13.9004 8.86813 14.1845C 8.11017 14.4686 7.19373 14.6107 6.1188 14.6107C 5.1679 14.6107 4.32727 14.472 3.59686 14.1947C 2.86646 13.9174 2.24632 13.5318 1.73642 13.038C 1.22651 12.5442 0.830312 11.9524 0.547798 11.2624C 0.265285 10.5725 0.0964679 9.82164 0.0413433 9.00993C 0.0137809 8.49584 0 7.92766 0 7.30535C 0 6.68304 0.0137809 6.11485 0.0413433 5.60077C 0.0964679 4.78906 0.265285 4.03824 0.547798 3.34828C 0.830312 2.65833 1.22651 2.06647 1.73642 1.57268C 2.24632 1.07889 2.86646 0.693333 3.59686 0.415999C 4.32727 0.138665 5.1679 0 6.1188 0C 7.19373 0 8.11017 0.142047 8.86813 0.426145C 9.62609 0.710243 10.2531 1.07551 10.7492 1.52195C 11.2454 1.96839 11.614 2.47232 11.8552 3.03375C 12.0964 3.59518 12.2376 4.14646 12.2789 4.6876C 12.2927 4.84994 12.2411 4.98184 12.1239 5.0833C 12.0068 5.18477 11.8724 5.2355 11.7208 5.2355L 10.0464 5.2355C 9.9086 5.2355 9.77768 5.19153 9.65365 5.1036C 9.52962 5.01566 9.45383 4.88376 9.42626 4.70789C 9.38492 4.43732 9.28845 4.17352 9.13686 3.91648C 8.98527 3.65944 8.77855 3.42946 8.51671 3.22653C 8.25487 3.0236 7.92413 2.85788 7.52447 2.72936C 7.12482 2.60084 6.65627 2.53658 6.1188 2.53658C 5.58134 2.53658 5.11279 2.61775 4.71313 2.78009C 4.31348 2.94243 3.97929 3.15888 3.71056 3.42945C 3.44183 3.70002 3.23511 4.0247 3.09041 4.4035C 2.94571 4.7823 2.85958 5.18138 2.83201 5.60077C 2.80445 6.11485 2.79067 6.68304 2.79067 7.30535C 2.79067 7.92766 2.80445 8.49584 2.83201 9.00993C 2.85958 9.44284 2.94571 9.84531 3.09041 10.2173C 3.23511 10.5894 3.44183 10.9107 3.71056 11.1812C 3.97929 11.4518 4.31348 11.6683 4.71313 11.8306C 5.11279 11.9929 5.58134 12.0741 6.1188 12.0741C 6.65627 12.0741 7.12482 12.0099 7.52447 11.8813C 7.92413 11.7528 8.25832 11.5871 8.52705 11.3842C 8.79578 11.1812 9.00594 10.9513 9.15753 10.6942C 9.30913 10.4372 9.40559 10.1734 9.44694 9.9028ZM 20.7232 0.202927C 22.4458 0.202927 23.755 0.595247 24.6508 1.3799C 25.5466 2.16455 25.9944 3.25358 25.9944 4.64701C 25.9944 5.63459 25.7636 6.47673 25.3019 7.17344C 24.8403 7.87016 24.1616 8.38762 23.2658 8.72583L 26.1185 13.7381C 26.1598 13.8193 26.1805 13.8937 26.1805 13.9613C 26.1805 14.0831 26.1357 14.1879 26.0461 14.2759C 25.9565 14.3638 25.8497 14.4078 25.7257 14.4078L 23.9686 14.4078C 23.693 14.4078 23.4897 14.3435 23.3588 14.215C 23.2279 14.0865 23.1349 13.9681 23.0797 13.8599L 20.3718 9.13168L 17.6224 9.13168L 17.6224 13.8599C 17.6224 14.0087 17.5673 14.1372 17.4571 14.2454C 17.3468 14.3537 17.2159 14.4078 17.0643 14.4078L 15.3899 14.4078C 15.2383 14.4078 15.1074 14.3537 14.9971 14.2454C 14.8869 14.1372 14.8318 14.0087 14.8318 13.8599L 14.8318 0.750828C 14.8318 0.602014 14.8869 0.473496 14.9971 0.365268C 15.1074 0.25704 15.2383 0.202927 15.3899 0.202927L 20.7232 0.202927ZM 17.6224 6.5951L 20.6198 6.5951C 21.4053 6.5951 22.0324 6.45982 22.5009 6.18925C 22.9695 5.91868 23.2038 5.4046 23.2038 4.64701C 23.2038 3.88941 22.9695 3.3821 22.5009 3.12506C 22.0324 2.86802 21.4053 2.7395 20.6198 2.7395L 17.6224 2.7395L 17.6224 6.5951ZM 35.5963 7.44739L 39.5239 0.750828C 39.579 0.683185 39.672 0.574959 39.803 0.426146C 39.9339 0.277332 40.1371 0.202927 40.4128 0.202927L 41.8184 0.202927C 41.97 0.202927 42.101 0.25704 42.2112 0.365268C 42.3215 0.473496 42.3766 0.602014 42.3766 0.750828L 42.3766 13.8599C 42.3766 14.0087 42.3215 14.1372 42.2112 14.2454C 42.101 14.3537 41.97 14.4078 41.8184 14.4078L 40.144 14.4078C 39.9924 14.4078 39.8615 14.3537 39.7513 14.2454C 39.641 14.1372 39.5859 14.0087 39.5859 13.8599L 39.5859 5.92545L 36.8986 10.4913C 36.8297 10.5995 36.7332 10.7111 36.6092 10.8261C 36.4852 10.9411 36.3267 10.9986 36.1337 10.9986L 35.0588 10.9986C 34.8659 10.9986 34.7074 10.9411 34.5834 10.8261C 34.4593 10.7111 34.3629 10.5995 34.294 10.4913L 31.6067 5.92545L 31.6067 13.8599C 31.6067 14.0087 31.5515 14.1372 31.4413 14.2454C 31.331 14.3537 31.2001 14.4078 31.0485 14.4078L 29.3741 14.4078C 29.2225 14.4078 29.0916 14.3537 28.9814 14.2454C 28.8711 14.1372 28.816 14.0087 28.816 13.8599L 28.816 0.750828C 28.816 0.602014 28.8711 0.473496 28.9814 0.365268C 29.0916 0.25704 29.2225 0.202927 29.3741 0.202927L 30.7798 0.202927C 31.0554 0.202927 31.2587 0.277332 31.3896 0.426146C 31.5205 0.574959 31.6135 0.683185 31.6687 0.750828L 35.5963 7.44739Z"/>
<path id="path2_fill" fill-rule="evenodd" d="M 24.4098 6.25067L 13.5672 0.0785333C 13.3832 -0.0261778 13.1563 -0.0261778 12.972 0.0785333L 0.277077 7.30517C 0.105521 7.40272 0 7.58305 0 7.77816L 0 22.16C 0 22.414 0.13729 22.6485 0.360359 22.7756L 12.9745 29.9561C 13.1572 30.0599 13.3823 30.0599 13.565 29.9561L 24.3921 23.7927C 24.5108 23.7251 24.5139 23.5573 24.3978 23.4855L 21.6159 21.7642C 21.3097 21.5747 20.9224 21.5678 20.6092 21.7459L 13.565 25.756C 13.3823 25.8601 13.1572 25.8601 12.9745 25.756L 4.22854 20.7775C 3.89474 20.5874 3.68914 20.2361 3.68914 19.856L 3.68914 9.56294L 12.972 4.27861C 13.1563 4.17368 13.3832 4.17368 13.5672 4.27861L 20.6119 8.28873C 20.9235 8.46616 21.3091 8.46012 21.6147 8.27285L 24.4148 6.55832C 24.5314 6.48672 24.5287 6.31847 24.4098 6.25067Z"/>
<path id="path3_fill" fill-rule="evenodd" d="M 6.29847e-18 0.0877972C 0.0354358 0.011331 0.133437 -0.0261153 0.214899 0.0204232L 12.9511 7.27256C 13.1399 7.37996 13.3723 7.37996 13.5609 7.27256L 26.2892 0.024898C 26.3942 -0.0350648 26.5256 0.0398887 26.5256 0.159591L 26.5256 14.7283C 26.5256 14.848 26.3942 14.9227 26.2892 14.863L 23.5195 13.2865C 23.097 13.0458 22.8365 12.6012 22.8365 12.1199L 22.8365 7.31105L 13.5609 12.5913C 13.3721 12.6987 13.1399 12.6987 12.9514 12.5913L 3.67552 7.31105L 3.67552 12.1199C 3.67552 12.6012 3.41501 13.0458 2.99248 13.2865L 0.214899 14.8675C 0.133437 14.914 0.0354358 14.8766 0 14.8001L 5.66944e-13 0.0877972L 6.29847e-18 0.0877972Z"/>
</defs>
</svg>
