<svg width="25" height="22" viewBox="0 0 25 22" version="1.1" xmlns="http://www.w3.org/2000/svg" xmlns:xlink="http://www.w3.org/1999/xlink">
<title>users-5</title>
<desc>Created using Figma</desc>
<g id="Canvas" transform="translate(-411 119)">
<g id="users-5">
<g id="Fill 1">
<use xlink:href="#path0_fill" transform="translate(411 -119)" fill="#FFFFFF"/>
</g>
<g id="Fill 2">
<use xlink:href="#path1_fill" transform="translate(424.619 -116.949)" fill="url(#paint1_linear)"/>
</g>
</g>
</g>
<defs>
<linearGradient id="paint1_linear" x1="0" y1="0" x2="1" y2="0" gradientUnits="userSpaceOnUse" gradientTransform="matrix(0 19.9109 -11.3807 0 5.69035 0)">
<stop offset="0" stop-color="#1BD4D1"/>
<stop offset="1" stop-color="#1F85D3"/>
</linearGradient>
<path id="path0_fill" fill-rule="evenodd" d="M 16.3775 17.1262L 12.5622 15.2195C 12.2033 15.0383 11.9792 14.6775 11.9792 14.2742L 11.9792 12.925C 12.071 12.8117 12.1663 12.6849 12.2657 12.5447C 12.7608 11.8464 13.1566 11.0687 13.4456 10.2282C 14.0086 9.97116 14.3755 9.41313 14.3755 8.78572L 14.3755 7.1865C 14.3755 6.80267 14.2313 6.43032 13.9757 6.13982L 13.9757 4.01452C 13.9972 3.7959 14.087 2.48767 13.1411 1.40955C 12.3206 0.473676 10.9889 0 9.18303 0C 7.37767 0 6.04798 0.473676 5.22741 1.40955C 4.28155 2.48767 4.3694 3.7959 4.39286 4.01452L 4.39286 6.13982C 4.1373 6.43032 3.99306 6.80267 3.99306 7.1865L 3.99306 8.78372C 3.99306 9.27088 4.21317 9.72309 4.59151 10.0256C 4.95638 11.474 5.72255 12.5661 5.98958 12.915L 5.98958 14.2367C 5.98958 14.6231 5.77895 14.978 5.43954 15.1631L 1.87773 17.1067C 0.719249 17.7386 0 18.9495 0 20.2692L 0 20.9618C 0 21.5141 0.447715 21.9618 1 21.9618L 17.3686 21.9618C 17.9208 21.9618 18.3686 21.5141 18.3686 20.9618L 18.3686 20.3476C 18.3686 18.975 17.6044 17.7406 16.3775 17.1262Z"/>
<path id="path1_fill" fill-rule="evenodd" d="M 9.57135 15.53L 5.68761 13.8474C 5.59577 13.8025 5.49444 13.6892 5.4066 13.539L 8.01356 13.537C 8.01356 13.537 8.1638 13.5529 8.3974 13.5529C 8.82465 13.5529 9.45056 13.504 9.99462 13.2699C 10.3201 13.1297 10.5636 12.8526 10.6615 12.5097C 10.7588 12.1628 10.6964 11.796 10.4898 11.5015C 9.74505 10.4408 8.00757 7.67216 7.95317 4.86454C 7.95117 4.81612 7.79494 0.0394314 3.07665 0C 2.60297 0.00399306 2.15675 0.0623915 1.73149 0.165712C 2.04744 1.00026 2.01799 1.74896 1.99653 1.99303L 1.99653 3.88225C 2.25608 4.25061 2.39633 4.68735 2.39633 5.13557L 2.39633 6.73479C 2.39633 7.49497 1.99453 8.20074 1.35514 8.59455C 1.05666 9.40165 0.660851 10.1563 0.177691 10.8406C 0.117296 10.9245 0.0583984 11.0044 0 11.0807L 0 11.9379C 0 12.1151 0.142032 12.33 0.297762 12.4079L 3.83617 14.1161C 5.26918 14.8338 6.38939 16.694 6.38939 18.2967L 6.38939 18.9109C 6.38939 19.4632 6.8371 19.9109 7.38939 19.9109L 10.3807 19.9109C 10.933 19.9109 11.3807 19.4632 11.3807 18.9109L 11.3807 18.4349C 11.3807 17.2006 10.6944 16.0915 9.57135 15.53Z"/>
</defs>
</svg>
