<svg width="32" height="23" viewBox="0 0 32 23" version="1.1" xmlns="http://www.w3.org/2000/svg" xmlns:xlink="http://www.w3.org/1999/xlink">
<title>Group 15</title>
<desc>Created using Figma</desc>
<g id="Canvas" transform="translate(274 -64)">
<g id="Group 15" opacity="0.5">
<g id="Combined Shape">
<use xlink:href="#path0_fill" transform="translate(-274 68.4444)" fill="#FFFFFF"/>
</g>
<g id="Combined Shape">
<use xlink:href="#path1_fill" transform="translate(-269.506 64)" fill="#FFFFFF"/>
</g>
</g>
</g>
<defs>
<path id="path0_fill" fill-rule="evenodd" d="M 3 0C 1.34314 0 0 1.34315 0 3L 0 15.0833C 0 16.7402 1.34314 18.0833 3 18.0833L 24.5556 18.0833C 26.2124 18.0833 27.5556 16.7402 27.5556 15.0833L 27.5556 3C 27.5556 1.34315 26.2124 0 24.5556 0L 3 0ZM 10.8813 9.52441L 8.92422 9.52441L 8.92422 14.2214C 8.92422 14.8699 8.3985 15.3956 7.75 15.3956C 7.10147 15.3956 6.57574 14.8699 6.57574 14.2214L 6.57574 9.52441L 4.61871 9.52441C 3.97018 9.52441 3.44446 8.99869 3.44446 8.35017C 3.44446 7.70165 3.97018 7.17593 4.61871 7.17593L 10.8813 7.17593C 11.5298 7.17593 12.0556 7.70165 12.0556 8.35017C 12.0556 8.99869 11.5298 9.52441 10.8813 9.52441ZM 4.61871 4.30556C 3.97018 4.30556 3.44446 4.83128 3.44446 5.4798C 3.44446 6.12832 3.97018 6.65405 4.61871 6.65405L 10.8813 6.65405C 11.5298 6.65405 12.0556 6.12832 12.0556 5.4798C 12.0556 4.83128 11.5298 4.30556 10.8813 4.30556L 4.61871 4.30556Z"/>
<path id="path1_fill" fill-rule="evenodd" d="M -0.0372925 2.72222L 20.7834 2.72222C 22.9925 2.72222 24.7834 4.51308 24.7834 6.72222L 24.7834 18.0706C 26.31 17.9305 27.5056 16.6465 27.5056 15.0833L 27.5056 5C 27.5056 2.23858 25.267 0 22.5056 0L 2.95001 0C 1.38681 0 0.102875 1.19559 -0.0372925 2.72222Z"/>
</defs>
</svg>
