<svg width="14" height="14" viewBox="0 0 14 14" version="1.1" xmlns="http://www.w3.org/2000/svg" xmlns:xlink="http://www.w3.org/1999/xlink">
<title>logout-2</title>
<desc>Created using Figma</desc>
<g id="Canvas" transform="translate(-983 199)">
<g id="logout-2">
<g id="Group 3">
<g id="Fill 1">
<use xlink:href="#path0_fill" transform="translate(983 -199)" fill="#DC2727"/>
</g>
</g>
<g id="Fill 4">
<use xlink:href="#path1_fill" transform="translate(990.259 -197.444)" fill="#DC2727"/>
</g>
</g>
</g>
<defs>
<path id="path0_fill" fill-rule="evenodd" d="M 9.36909 0.653784C 9.36909 0.294141 9.07494 0 8.7153 0L 0.653784 0C 0.294141 0 0 0.294141 0 0.653784L 0 9.892C 0 10.1313 0.141487 10.36 0.348476 10.4691L 5.3162 13.0405C 5.53435 13.1491 5.79554 12.9968 5.79554 12.7463L 5.79554 10.2403L 8.7153 10.2403C 9.07494 10.2403 9.36909 9.9462 9.36909 9.58656L 9.36909 6.51356C 9.36909 6.23742 9.14523 6.01356 8.86909 6.01356L 8.56152 6.01356C 8.28538 6.01356 8.06152 6.23742 8.06152 6.51356L 8.06152 8.60622C 8.06152 8.79142 7.92003 8.93332 7.73497 8.93332L 5.80671 8.93332L 5.80671 3.38794C 5.80671 3.14854 5.66522 2.91976 5.45768 2.81082L 2.5273 1.30743L 7.73497 1.30743C 7.92003 1.30743 8.06152 1.44905 8.06152 1.63412L 8.06152 2.41976C 8.06152 2.6959 8.28538 2.91976 8.56152 2.91976L 8.86909 2.91976C 9.14523 2.91976 9.36909 2.6959 9.36909 2.41976L 9.36909 0.653784Z"/>
<path id="path1_fill" fill-rule="evenodd" d="M 4.37099 0.211156L 6.49508 2.33578C 6.76743 2.60814 6.76743 3.01081 6.49508 3.28316L 4.37099 5.40779C 4.09864 5.68014 3.68425 5.69131 3.4119 5.41896C 3.15071 5.15723 3.18312 4.7216 3.43369 4.45987L 4.39278 3.51249L 0.677748 3.51249C 0.492684 3.51249 0.307484 3.43582 0.18724 3.29433C -0.117523 2.96778 -0.0414006 2.38998 0.351196 2.17251C 0.448971 2.11763 0.56867 2.08522 0.677748 2.08522L 4.39278 2.08522C 4.39278 2.08522 3.44486 1.13729 3.43369 1.13729C 3.18312 0.886728 3.15071 0.439933 3.4119 0.189368C 3.67363 -0.0718188 4.09864 -0.0611971 4.37099 0.211156Z"/>
</defs>
</svg>
