<svg width="27" height="23" viewBox="0 0 27 23" version="1.1" xmlns="http://www.w3.org/2000/svg" xmlns:xlink="http://www.w3.org/1999/xlink">
<title>Group 4</title>
<desc>Created using Figma</desc>
<g id="Canvas" transform="translate(-410 52)">
<g id="Group 4">
<g id="Oval">
<use xlink:href="#path0_stroke" transform="translate(412 -50.0385)" fill="#FFFFFF"/>
</g>
<g id="Line">
<use xlink:href="#path1_stroke" transform="translate(424.944 -37.0947)" fill="#FFFFFF"/>
</g>
<g id="Combined Shape">
<use xlink:href="#path2_fill" transform="translate(426.248 -51)" fill="url(#paint2_linear)"/>
</g>
</g>
</g>
<defs>
<linearGradient id="paint2_linear" x1="0" y1="0" x2="1" y2="0" gradientUnits="userSpaceOnUse" gradientTransform="matrix(0 12.5 -10.7516 0 5.37582 0)">
<stop offset="0" stop-color="#1BD4D1"/>
<stop offset="1" stop-color="#1F85D3"/>
</linearGradient>
<path id="path0_stroke" d="M 7.47863 16.4573C 12.4374 16.4573 16.4573 12.4374 16.4573 7.47863L 13.4573 7.47863C 13.4573 10.7805 10.7805 13.4573 7.47863 13.4573L 7.47863 16.4573ZM 16.4573 7.47863C 16.4573 2.51987 12.4374 -1.5 7.47863 -1.5L 7.47863 1.5C 10.7805 1.5 13.4573 4.17672 13.4573 7.47863L 16.4573 7.47863ZM 7.47863 -1.5C 2.51987 -1.5 -1.5 2.51987 -1.5 7.47863L 1.5 7.47863C 1.5 4.17672 4.17672 1.5 7.47863 1.5L 7.47863 -1.5ZM -1.5 7.47863C -1.5 12.4374 2.51987 16.4573 7.47863 16.4573L 7.47863 13.4573C 4.17672 13.4573 1.5 10.7805 1.5 7.47863L -1.5 7.47863Z"/>
<path id="path1_stroke" d="M 1.06066 -1.06066C 0.474874 -1.64645 -0.474874 -1.64645 -1.06066 -1.06066C -1.64645 -0.474874 -1.64645 0.474874 -1.06066 1.06066L 1.06066 -1.06066ZM 5.21544 7.33676C 5.80122 7.92254 6.75097 7.92254 7.33676 7.33676C 7.92254 6.75097 7.92254 5.80122 7.33676 5.21544L 5.21544 7.33676ZM -1.06066 1.06066L 5.21544 7.33676L 7.33676 5.21544L 1.06066 -1.06066L -1.06066 1.06066Z"/>
<path id="path2_fill" fill-rule="evenodd" d="M 3.26208 12.5L 9.30933 12.5C 10.1059 12.5 10.7516 11.8543 10.7516 11.0577C 10.7516 10.2611 10.1059 9.61539 9.30933 9.61539L 3.98651 9.61539C 3.87744 10.6251 3.62946 11.5931 3.26208 12.5ZM 4.02414 7.69231C 3.95551 6.68683 3.74948 5.71909 3.42471 4.80769L 9.30933 4.80769C 10.1059 4.80769 10.7516 5.45344 10.7516 6.25C 10.7516 7.04657 10.1059 7.69231 9.30933 7.69231L 4.02414 7.69231ZM 2.51624 2.88462C 1.85379 1.77974 0.999756 0.802891 3.05176e-05 0L 9.30933 0C 10.1059 0 10.7516 0.645744 10.7516 1.44231C 10.7516 2.23887 10.1059 2.88462 9.30933 2.88462L 2.51624 2.88462Z"/>
</defs>
</svg>
