<svg width="18" height="19" viewBox="0 0 18 19" version="1.1" xmlns="http://www.w3.org/2000/svg" xmlns:xlink="http://www.w3.org/1999/xlink">
<title>Group 16 Copy 2</title>
<desc>Created using Figma</desc>
<g id="Canvas" transform="translate(528 -56)">
<g id="Group 16 Copy 2">
<g id="Combined Shape">
<use xlink:href="#path0_fill" transform="translate(-528 56.629)" fill="#FFFFFF"/>
</g>
<g id="Combined Shape">
<use xlink:href="#path1_fill" transform="translate(-517.361 56.868)" fill="url(#paint1_linear)"/>
</g>
</g>
</g>
<defs>
<linearGradient id="paint1_linear" x1="0" y1="0" x2="1" y2="0" gradientUnits="userSpaceOnUse" gradientTransform="matrix(0 10.6892 -7.36108 0 3.68054 0)">
<stop offset="0" stop-color="#1BD4D1"/>
<stop offset="1" stop-color="#1F85D3"/>
</linearGradient>
<path id="path0_fill" fill-rule="evenodd" d="M 8.8728 0.000244141L 8.8728 8.25113L 16.7561 12.6003C 15.3387 15.565 12.3117 17.6129 8.80646 17.6129C 3.94281 17.6129 0 13.6701 0 8.80645C 0 3.94278 3.94281 0 8.80646 0C 8.82861 0 8.85071 8.01086e-05 8.8728 0.000244141Z"/>
<path id="path1_fill" fill-rule="evenodd" d="M 7.13281 10.6892C 7.28214 10.0464 7.36108 9.37664 7.36108 8.68841C 7.36108 4.31702 4.17603 0.689522 0 0L 0 6.75406L 7.13281 10.6892Z"/>
</defs>
</svg>
