<svg width="19" height="18" viewBox="0 0 19 18" version="1.1" xmlns="http://www.w3.org/2000/svg" xmlns:xlink="http://www.w3.org/1999/xlink">
<title>Group 20 Copy 2</title>
<desc>Created using Figma</desc>
<g id="Canvas" transform="translate(530 -166)">
<g id="Group 20 Copy 2">
<g id="Group 17">
<g id="Path 2">
<use xlink:href="#path0_stroke" transform="matrix(0.866025 -0.5 0.5 0.866025 -528.45 171.649)" fill="#FFFFFF"/>
</g>
<g id="Oval 2">
<use xlink:href="#path1_fill" transform="matrix(0.866025 -0.5 0.5 0.866025 -522.748 180.328)" fill="#FFFFFF"/>
</g>
<g id="Line 3">
<use xlink:href="#path2_stroke" transform="matrix(0.866025 -0.5 0.5 0.866025 -519.842 179.875)" fill="#FFFFFF"/>
</g>
<g id="Group 21">
<g id="Combined Shape">
<use xlink:href="#path3_fill" transform="matrix(0.866025 -0.5 0.5 0.866025 -524.596 169.766)" fill="url(#paint3_linear)"/>
</g>
</g>
</g>
</g>
</g>
<defs>
<linearGradient id="paint3_linear" x1="0" y1="0" x2="1" y2="0" gradientUnits="userSpaceOnUse" gradientTransform="matrix(0 10.1088 -7.38148 0 3.69074 0)">
<stop offset="0" stop-color="#1BD4D1"/>
<stop offset="1" stop-color="#1F85D3"/>
</linearGradient>
<path id="path0_stroke" d="M 0.181119 -0.727802C -0.220835 -0.827831 -0.627773 -0.583073 -0.727802 -0.181119C -0.827831 0.220835 -0.583073 0.627773 -0.181119 0.727802L 0.181119 -0.727802ZM 2.43701 0.606469L 3.18701 0.604767C 3.18623 0.260951 2.95177 -0.0383043 2.61813 -0.121333L 2.43701 0.606469ZM 1.7089 10.2503C 1.70984 10.6645 2.04639 10.9995 2.4606 10.9986C 2.87481 10.9976 3.20983 10.6611 3.20889 10.2469L 1.7089 10.2503ZM -0.181119 0.727802L 2.25589 1.33427L 2.61813 -0.121333L 0.181119 -0.727802L -0.181119 0.727802ZM 1.68701 0.608171L 1.7089 10.2503L 3.20889 10.2469L 3.18701 0.604767L 1.68701 0.608171Z"/>
<path id="path1_fill" fill-rule="evenodd" d="M 2 4C 3.10457 4 4 3.10457 4 2C 4 0.89543 3.10457 0 2 0C 0.89543 0 0 0.89543 0 2C 0 3.10457 0.89543 4 2 4Z"/>
<path id="path2_stroke" d="M 0.84684 0.25C 0.432626 0.25 0.09684 0.585786 0.09684 1C 0.09684 1.41421 0.432626 1.75 0.84684 1.75L 0.84684 0.25ZM 8.46663 1.75C 8.88084 1.75 9.21663 1.41421 9.21663 1C 9.21663 0.585786 8.88084 0.25 8.46663 0.25L 8.46663 1.75ZM 0.84684 1.75L 8.46663 1.75L 8.46663 0.25L 0.84684 0.25L 0.84684 1.75Z"/>
<path id="path3_fill" fill-rule="evenodd" d="M 0.499975 -1.46478e-05C 0.223839 -4.52e-06 1.01051e-05 0.223859 -6.10948e-07 0.500001L 5.31426e-06 4.07763C -5.40179e-06 4.35377 0.223843 4.57762 0.499979 4.57761L 6.82001 4.57765C 7.09615 4.57764 7.31999 4.35376 7.31999 4.07763L 7.31999 0.499992C 7.32 0.223851 7.09615 8.85885e-06 6.82002 5.7722e-06L 0.499975 -1.46478e-05ZM 0.557237 5.53118C 0.281101 5.53119 0.0572721 5.75505 0.0572614 6.03119L 0.0572673 9.60882C 0.0572566 9.88496 0.281105 10.1088 0.557241 10.1088L 6.88145 10.1088C 7.15764 10.1088 7.38147 9.88496 7.38148 9.60883L 7.38148 6.03119C 7.38148 5.75506 7.15763 5.53121 6.88145 5.53117L 0.557237 5.53118Z"/>
</defs>
</svg>
